<?xml version="1.0" encoding="utf-8"?>
<!-- Generator: Adobe Illustrator 25.2.0, SVG Export Plug-In . SVG Version: 6.00 Build 0)  -->
<svg version="1.1" id="Lag_1" focusable="false" xmlns="http://www.w3.org/2000/svg" xmlns:xlink="http://www.w3.org/1999/xlink"
	 x="0px" y="0px" viewBox="0 0 640 512" style="enable-background:new 0 0 640 512;" xml:space="preserve">
<style type="text/css">
	.st0{fill:#E0E0E0;}
	.st1{fill:#FFFFFF;}
</style>
<path class="st0" d="M537.6,226.6c4.1-10.7,6.4-22.4,6.4-34.6c0-53-43-96-96-96c-19.7,0-38.1,6-53.3,16.2C367,64.2,315.3,32,256,32
	c-88.4,0-160,71.6-160,160c0,2.7,0.1,5.4,0.2,8.1C40.2,219.8,0,273.2,0,336c0,79.5,64.5,144,144,144h368c70.7,0,128-57.3,128-128
	C640,290.1,596,238.4,537.6,226.6z"/>
<path class="st1" d="M459.6,420c0.4,7.5-5.3,14-12.9,14.4c-0.2,0-0.5,0-0.7,0h-27.2c-7.1,0-13-5.6-13.5-12.7
	c-6.4-109.8-94.6-198.9-204.3-204.8c-7.2-0.4-12.8-6.3-12.7-13.5v-26.8c0-7.5,6.2-13.6,13.7-13.6c0.2,0,0.5,0,0.7,0
	C341.2,170.3,452.4,281.6,459.6,420z M378.2,419.7c0.5,7.6-5.2,14.1-12.8,14.6c-0.3,0-0.6,0-0.9,0h-27.3c-7-0.1-12.9-5.5-13.5-12.5
	c-5.9-65.3-57.8-117.8-122.9-123.1c-7.1-0.5-12.5-6.4-12.5-13.5v-27.2c0-7.6,6.1-13.7,13.7-13.7c0.3,0,0.7,0,1,0
	C296.4,251.6,371.1,326.4,378.2,419.7L378.2,419.7z"/>
</svg>
